<svg width="18" height="14" viewBox="0 0 18 14" fill="none" xmlns="http://www.w3.org/2000/svg">
<path d="M17.115 1.61395C16.4964 1.88061 15.8564 2.05661 15.195 2.14194C15.5364 1.92861 15.835 1.66194 16.091 1.34194C16.347 1.02194 16.5337 0.669945 16.651 0.285945C15.9897 0.680612 15.2857 0.952611 14.539 1.10194C14.219 0.760612 13.8457 0.499278 13.419 0.317945C12.9924 0.136611 12.5497 0.0459442 12.091 0.0459442C11.483 0.0459442 10.923 0.195278 10.411 0.493945C9.89904 0.792611 9.49371 1.19794 9.19504 1.70994C8.89638 2.22194 8.74704 2.78195 8.74704 3.38995C8.74704 3.64594 8.77371 3.90195 8.82704 4.15794C7.46171 4.08328 6.17104 3.73661 4.95504 3.11794C3.78171 2.50994 2.77371 1.68861 1.93104 0.653945C1.63238 1.17661 1.48304 1.73661 1.48304 2.33394C1.48304 2.90994 1.61638 3.44328 1.88304 3.93394C2.14971 4.42461 2.51238 4.81928 2.97104 5.11794C2.43771 5.10728 1.93104 4.96861 1.45104 4.70195V4.74994C1.45104 5.28328 1.56838 5.77928 1.80304 6.23795C2.03771 6.69661 2.36038 7.08328 2.77104 7.39794C3.18171 7.71261 3.63771 7.92328 4.13904 8.02994C3.85104 8.10461 3.55771 8.14194 3.25904 8.14194C3.04571 8.14194 2.83771 8.12061 2.63504 8.07795C2.84838 8.74995 3.24038 9.30195 3.81104 9.73395C4.38171 10.1659 5.02971 10.3926 5.75504 10.4139C5.15771 10.8726 4.50438 11.2246 3.79504 11.4699C3.08571 11.7153 2.35238 11.8379 1.59504 11.8379C1.32838 11.8379 1.06171 11.8219 0.795044 11.7899C1.56304 12.2806 2.38438 12.6539 3.25904 12.9099C4.13371 13.1659 5.02438 13.2939 5.93104 13.2939C7.40304 13.2939 8.76304 13.0059 10.011 12.4299C11.1524 11.8966 12.1497 11.1499 13.003 10.1899C13.7924 9.29395 14.4004 8.27528 14.827 7.13394C15.243 6.02461 15.451 4.90461 15.451 3.77394C15.451 3.63528 15.4457 3.49128 15.435 3.34194C16.0964 2.86195 16.6564 2.28594 17.115 1.61395Z" fill="#333333"/>
</svg>
