<svg width="16" height="15" viewBox="0 0 16 15" fill="none" xmlns="http://www.w3.org/2000/svg">
<path d="M3.4026 2.06987C3.39193 2.40054 3.29593 2.69921 3.1146 2.96587C2.93326 3.23254 2.69326 3.42721 2.3946 3.54987C2.09593 3.67254 1.7866 3.70187 1.4666 3.63787C1.1466 3.57387 0.871931 3.42454 0.642598 3.18987C0.413264 2.95521 0.271931 2.67787 0.218598 2.35787C0.165264 2.03787 0.202598 1.72854 0.330598 1.42987C0.458598 1.13121 0.661264 0.893872 0.938598 0.717873C1.21593 0.541872 1.51993 0.459206 1.8506 0.469872C2.27726 0.480539 2.6426 0.640539 2.9466 0.949872C3.2506 1.25921 3.4026 1.63254 3.4026 2.06987ZM3.4506 4.85387H0.250598V14.8699H3.4506V4.85387ZM8.5066 4.85387H5.3226V14.8699H8.4746V9.62187C8.4746 9.05654 8.6026 8.57654 8.8586 8.18187C9.10393 7.81921 9.4186 7.56854 9.8026 7.42987C10.1866 7.29121 10.5706 7.28054 10.9546 7.39787C11.3386 7.51521 11.6479 7.74987 11.8826 8.10187C12.1493 8.50721 12.2826 9.01387 12.2826 9.62187V14.8699H15.4506V8.53387C15.4506 7.59521 15.2479 6.80054 14.8426 6.14987C14.4906 5.58454 13.9999 5.15787 13.3706 4.86987C12.7946 4.62454 12.1706 4.51787 11.4986 4.54987C10.8479 4.58187 10.2453 4.74454 9.6906 5.03787C9.13593 5.33121 8.7306 5.71787 8.4746 6.19787L8.5066 4.85387Z" fill="#333333"/>
</svg>
