<svg width="16" height="17" viewBox="0 0 16 17" fill="none" xmlns="http://www.w3.org/2000/svg">
<path d="M7.99506 6.26992C7.55772 6.26992 7.15506 6.37659 6.78706 6.58992C6.41906 6.80326 6.12839 7.09392 5.91506 7.46192C5.70172 7.82992 5.59506 8.23259 5.59506 8.66992C5.59506 9.10725 5.70172 9.50992 5.91506 9.87792C6.12839 10.2459 6.41906 10.5366 6.78706 10.7499C7.15506 10.9633 7.55772 11.0699 7.99506 11.0699C8.43239 11.0699 8.83506 10.9633 9.20306 10.7499C9.57106 10.5366 9.86172 10.2459 10.0751 9.87792C10.2884 9.50992 10.3951 9.10725 10.3951 8.66992C10.3951 8.23259 10.2884 7.82992 10.0751 7.46192C9.86172 7.09392 9.57106 6.80326 9.20306 6.58992C8.83506 6.37659 8.43239 6.26992 7.99506 6.26992ZM7.99506 4.66992C8.72039 4.66992 9.38972 4.84859 10.0031 5.20592C10.6164 5.56325 11.1017 6.04859 11.4591 6.66192C11.8164 7.27526 11.9951 7.94459 11.9951 8.66992C11.9951 9.39525 11.8164 10.0646 11.4591 10.6779C11.1017 11.2913 10.6164 11.7766 10.0031 12.1339C9.38972 12.4913 8.72039 12.6699 7.99506 12.6699C7.26972 12.6699 6.60039 12.4913 5.98706 12.1339C5.37372 11.7766 4.88839 11.2913 4.53106 10.6779C4.17372 10.0646 3.99506 9.39525 3.99506 8.66992C3.99506 7.94459 4.17372 7.27526 4.53106 6.66192C4.88839 6.04859 5.37372 5.56325 5.98706 5.20592C6.60039 4.84859 7.26972 4.66992 7.99506 4.66992ZM13.1951 4.46192C13.1951 4.73925 13.0964 4.97659 12.8991 5.17392C12.7017 5.37125 12.4671 5.46992 12.1951 5.46992C11.9231 5.46992 11.6884 5.37125 11.4911 5.17392C11.2937 4.97659 11.1951 4.74192 11.1951 4.46992C11.1951 4.19792 11.2937 3.96325 11.4911 3.76592C11.6884 3.56859 11.9231 3.46992 12.1951 3.46992C12.4671 3.46992 12.7017 3.56859 12.8991 3.76592C13.0964 3.96325 13.1951 4.19525 13.1951 4.46192ZM7.99506 2.26992C7.01372 2.26992 6.34706 2.27259 5.99506 2.27792C5.64306 2.28325 5.23772 2.29659 4.77906 2.31792C4.20306 2.33925 3.72306 2.42459 3.33906 2.57392C3.00839 2.70192 2.71772 2.89125 2.46706 3.14192C2.21639 3.39259 2.02706 3.68325 1.89906 4.01392C1.74972 4.39792 1.66439 4.87792 1.64306 5.45392C1.62172 5.89125 1.60839 6.28325 1.60306 6.62992C1.59772 6.97659 1.59506 7.65659 1.59506 8.66992C1.59506 9.65125 1.59772 10.3179 1.60306 10.6699C1.60839 11.0219 1.62172 11.4273 1.64306 11.8859C1.66439 12.4619 1.74972 12.9419 1.89906 13.3259C2.02706 13.6566 2.21639 13.9473 2.46706 14.1979C2.71772 14.4486 3.00839 14.6326 3.33906 14.7499C3.72306 14.9099 4.20306 15.0006 4.77906 15.0219C5.21639 15.0433 5.60839 15.0566 5.95506 15.0619C6.30172 15.0673 6.98172 15.0699 7.99506 15.0699C8.97639 15.0699 9.64306 15.0673 9.99506 15.0619C10.3471 15.0566 10.7524 15.0433 11.2111 15.0219C11.7871 15.0006 12.2671 14.9153 12.6511 14.7659C12.9817 14.6379 13.2724 14.4486 13.5231 14.1979C13.7737 13.9473 13.9577 13.6566 14.0751 13.3259C14.2351 12.9419 14.3257 12.4619 14.3471 11.8859C14.3684 11.4486 14.3817 11.0566 14.3871 10.7099C14.3924 10.3633 14.3951 9.68325 14.3951 8.66992C14.3951 7.68859 14.3924 7.02192 14.3871 6.66992C14.3817 6.31792 14.3684 5.91259 14.3471 5.45392C14.3257 4.87792 14.2404 4.39792 14.0911 4.01392C13.9631 3.68325 13.7737 3.39259 13.5231 3.14192C13.2724 2.89125 12.9817 2.70192 12.6511 2.57392C12.2671 2.42459 11.7871 2.33925 11.2111 2.31792C10.7737 2.29659 10.3817 2.28325 10.0351 2.27792C9.68839 2.27259 9.00839 2.26992 7.99506 2.26992ZM7.99506 0.669922C9.04039 0.669922 9.75506 0.675255 10.1391 0.685921C10.4591 0.685921 10.8431 0.696588 11.2911 0.717921C12.0377 0.749921 12.6831 0.872588 13.2271 1.08592C13.7711 1.29925 14.2457 1.60859 14.6511 2.01392C15.0564 2.41925 15.3657 2.89392 15.5791 3.43792C15.7924 3.98192 15.9151 4.62725 15.9471 5.37392C15.9684 5.83259 15.9791 6.21659 15.9791 6.52592C15.9897 6.93125 15.9951 7.65125 15.9951 8.68592C15.9951 9.72059 15.9897 10.4299 15.9791 10.8139C15.9791 11.1339 15.9684 11.5179 15.9471 11.9659C15.9151 12.7126 15.7924 13.3579 15.5791 13.9019C15.3657 14.4459 15.0564 14.9206 14.6511 15.3259C14.2457 15.7313 13.7711 16.0406 13.2271 16.2539C12.6831 16.4673 12.0377 16.5899 11.2911 16.6219C10.8324 16.6433 10.4484 16.6539 10.1391 16.6539C9.73372 16.6646 9.01372 16.6699 7.97906 16.6699C6.94439 16.6699 6.23506 16.6646 5.85106 16.6539C5.53106 16.6539 5.14706 16.6433 4.69906 16.6219C3.95239 16.5899 3.30706 16.4673 2.76306 16.2539C2.21906 16.0406 1.74439 15.7313 1.33906 15.3259C0.933723 14.9206 0.62439 14.4459 0.411056 13.9019C0.197723 13.3579 0.0750562 12.7126 0.0430562 11.9659C0.0217228 11.5073 0.0110562 11.1233 0.0110562 10.8139C0.000389486 10.4086 -0.00494385 9.68859 -0.00494385 8.65392C-0.00494385 7.61926 0.000389486 6.90992 0.0110562 6.52592C0.0110562 6.20592 0.0217228 5.82192 0.0430562 5.37392C0.0750562 4.62725 0.197723 3.98192 0.411056 3.43792C0.62439 2.89392 0.933723 2.41925 1.33906 2.01392C1.74439 1.60859 2.21906 1.29925 2.76306 1.08592C3.30706 0.872588 3.95239 0.749921 4.69906 0.717921C5.15772 0.696588 5.54172 0.685921 5.85106 0.685921C6.25639 0.675255 6.97106 0.669922 7.99506 0.669922Z" fill="#333333"/>
</svg>
