<svg width="9" height="17" viewBox="0 0 9 17" fill="none" xmlns="http://www.w3.org/2000/svg">
<path d="M6.19503 9.86992H8.19503L8.99503 6.66992H6.19503V5.06992C6.19503 4.70725 6.21103 4.44592 6.24303 4.28592C6.30703 4.02992 6.4457 3.83259 6.65903 3.69392C6.91503 3.54459 7.2937 3.46992 7.79503 3.46992H8.99503V0.781921C8.8137 0.760588 8.5257 0.739254 8.13103 0.717921C7.64037 0.685921 7.1657 0.669922 6.70703 0.669922C5.97103 0.669922 5.32303 0.816587 4.76303 1.10992C4.20303 1.40325 3.7737 1.82192 3.47503 2.36592C3.15503 2.95259 2.99503 3.64059 2.99503 4.42992V6.66992H0.595032V9.86992H2.99503V16.6699H6.19503V9.86992Z" fill="#333333"/>
</svg>
